<?xml version="1.0" encoding="utf-8"?>
<!-- Generator: Adobe Illustrator 23.0.2, SVG Export Plug-In . SVG Version: 6.00 Build 0)  -->
<svg version="1.1" id="Layer_1" xmlns="http://www.w3.org/2000/svg" xmlns:xlink="http://www.w3.org/1999/xlink" x="0px" y="0px"
	 viewBox="0 0 1399.76 977.01" style="enable-background:new 0 0 1399.76 977.01;" xml:space="preserve">
<style type="text/css">
	.st0{fill:#FFFFFF;}
</style>
<g>
	<path class="st0" d="M171.59,859.41c0,43.09-20.31,64.64-60.93,64.64c-39.41,0-59.11-21.04-59.11-63.14v-82.85h32.79v83.25
		c0,23.21,9.18,34.82,27.53,34.82c18.02,0,27.03-11.21,27.03-33.62v-84.45h32.69V859.41z"/>
	<path class="st0" d="M221.82,921.54V778.06h52.84c16.19,0,28.64,2.94,37.35,8.81c8.71,5.87,13.06,14.14,13.06,24.81
		c0,7.74-2.65,14.51-7.95,20.31c-5.3,5.8-12.06,9.84-20.29,12.11v0.4c10.32,1.27,18.57,5.04,24.75,11.31
		c6.17,6.27,9.26,13.91,9.26,22.91c0,13.14-4.76,23.56-14.27,31.27c-9.51,7.7-22.51,11.56-38.97,11.56H221.82z M254.52,801.87v34.02
		h14.37c6.75,0,12.06-1.62,15.94-4.85c3.88-3.23,5.82-7.69,5.82-13.36c0-10.54-7.96-15.81-23.89-15.81H254.52z M254.52,859.9v37.82
		h17.71c7.56,0,13.48-1.73,17.76-5.2c4.28-3.47,6.43-8.2,6.43-14.21c0-5.74-2.11-10.24-6.33-13.51c-4.22-3.27-10.11-4.9-17.66-4.9
		H254.52z"/>
	<path class="st0" d="M406.07,921.54h-32.69V778.06h32.69V921.54z"/>
	<path class="st0" d="M451.05,916.04v-32.02c5.87,4.87,12.25,8.52,19.13,10.96c6.88,2.44,13.83,3.65,20.85,3.65
		c4.11,0,7.71-0.37,10.78-1.1c3.07-0.73,5.63-1.75,7.69-3.05c2.06-1.3,3.59-2.83,4.61-4.6c1.01-1.77,1.52-3.69,1.52-5.75
		c0-2.8-0.81-5.3-2.43-7.5c-1.62-2.2-3.83-4.24-6.63-6.1c-2.8-1.87-6.12-3.67-9.97-5.4c-3.85-1.73-8-3.5-12.45-5.3
		c-11.34-4.67-19.79-10.37-25.35-17.11c-5.57-6.74-8.35-14.87-8.35-24.41c0-7.47,1.52-13.89,4.55-19.26
		c3.04-5.37,7.17-9.79,12.4-13.26c5.23-3.47,11.29-6.02,18.17-7.65c6.88-1.63,14.17-2.45,21.86-2.45c7.56,0,14.25,0.45,20.09,1.35
		c5.83,0.9,11.22,2.29,16.14,4.15v29.92c-2.43-1.67-5.08-3.13-7.95-4.4c-2.87-1.27-5.82-2.32-8.86-3.15
		c-3.04-0.83-6.06-1.45-9.06-1.85c-3-0.4-5.86-0.6-8.55-0.6c-3.71,0-7.09,0.35-10.12,1.05c-3.04,0.7-5.6,1.69-7.69,2.95
		c-2.09,1.27-3.71,2.79-4.86,4.55c-1.15,1.77-1.72,3.75-1.72,5.95c0,2.4,0.64,4.55,1.92,6.45c1.28,1.9,3.1,3.7,5.47,5.4
		c2.36,1.7,5.23,3.37,8.6,5c3.37,1.64,7.19,3.32,11.44,5.05c5.8,2.4,11.02,4.95,15.64,7.65c4.62,2.7,8.59,5.75,11.89,9.15
		c3.3,3.4,5.83,7.29,7.59,11.66c1.76,4.37,2.63,9.46,2.63,15.26c0,8-1.54,14.73-4.6,20.16c-3.07,5.44-7.24,9.84-12.5,13.21
		c-5.26,3.37-11.39,5.79-18.37,7.25c-6.98,1.47-14.36,2.2-22.12,2.2c-7.96,0-15.54-0.67-22.72-2
		C462.53,920.71,456.31,918.71,451.05,916.04z"/>
	<path class="st0" d="M679.63,921.54h-87.05V778.06h83.71v26.32h-51.01v31.92h47.47v26.22h-47.47v32.82h54.35V921.54z"/>
	<path class="st0" d="M825.62,916.44c-10.59,5.07-24.43,7.6-41.5,7.6c-22.27,0-39.78-6.47-52.53-19.41
		c-12.75-12.94-19.13-30.18-19.13-51.73c0-22.95,7.17-41.56,21.51-55.83c14.34-14.27,32.95-21.41,55.82-21.41
		c14.17,0,26.11,1.77,35.83,5.3v31.12c-9.72-5.74-20.78-8.6-33.2-8.6c-13.63,0-24.63,4.24-33,12.71
		c-8.37,8.47-12.55,19.94-12.55,34.42c0,13.87,3.95,24.93,11.84,33.17c7.9,8.24,18.52,12.36,31.88,12.36
		c12.75,0,24.43-3.07,35.02-9.21V916.44z"/>
	<path class="st0" d="M987.9,859.41c0,43.09-20.31,64.64-60.93,64.64c-39.41,0-59.11-21.04-59.11-63.14v-82.85h32.79v83.25
		c0,23.21,9.18,34.82,27.53,34.82c18.02,0,27.02-11.21,27.02-33.62v-84.45h32.69V859.41z"/>
	<path class="st0" d="M1159.9,921.54h-37.55l-22.57-36.92c-1.69-2.8-3.31-5.3-4.86-7.5c-1.55-2.2-3.12-4.09-4.71-5.65
		c-1.59-1.57-3.24-2.77-4.96-3.6s-3.59-1.25-5.62-1.25h-8.81v54.93h-32.69V778.06h51.82c35.22,0,52.84,13.01,52.84,39.02
		c0,5-0.78,9.62-2.33,13.86c-1.55,4.24-3.74,8.05-6.58,11.46c-2.83,3.4-6.26,6.34-10.27,8.8c-4.02,2.47-8.49,4.4-13.41,5.8v0.4
		c2.16,0.67,4.25,1.75,6.27,3.25c2.02,1.5,3.98,3.25,5.87,5.25c1.89,2,3.69,4.15,5.42,6.45c1.72,2.3,3.29,4.55,4.71,6.75
		L1159.9,921.54z M1070.83,802.27v39.92H1085c7.02,0,12.65-2,16.9-6c4.32-4.07,6.48-9.1,6.48-15.11c0-12.54-7.59-18.81-22.77-18.81
		H1070.83z"/>
	<path class="st0" d="M1279.17,921.54h-87.05V778.06h83.71v26.32h-51.01v31.92h47.47v26.22h-47.47v32.82h54.35V921.54z"/>
</g>
<g>
	<path class="st0" d="M1354.24,795.34c0,13.3-10.44,23.74-24.03,23.74c-13.44,0-24.17-10.44-24.17-23.74
		c0-13.01,10.73-23.45,24.17-23.45C1343.8,771.89,1354.24,782.33,1354.24,795.34z M1312.05,795.34c0,10.44,7.72,18.73,18.3,18.73
		c10.3,0,17.88-8.29,17.88-18.59c0-10.44-7.58-18.88-18.02-18.88S1312.05,785.04,1312.05,795.34z M1326.49,807.64h-5.43v-23.45
		c2.15-0.43,5.15-0.71,9.01-0.71c4.43,0,6.44,0.71,8.15,1.72c1.29,1,2.29,2.86,2.29,5.15c0,2.57-2,4.58-4.86,5.43v0.29
		c2.29,0.86,3.57,2.57,4.29,5.72c0.71,3.58,1.14,5.01,1.72,5.86h-5.86c-0.71-0.86-1.14-3-1.86-5.72c-0.43-2.57-1.86-3.72-4.86-3.72
		h-2.57V807.64z M1326.64,794.34h2.57c3,0,5.43-1,5.43-3.43c0-2.15-1.57-3.58-5-3.58c-1.43,0-2.43,0.14-3,0.29V794.34z"/>
</g>
<path class="st0" d="M952.49,82.61v375.02c0,74.36-30.39,141.93-79.33,190.88c-48.94,48.93-116.51,79.32-190.88,79.32l0,0
	c-74.37,0-141.93-30.39-190.87-79.32c-48.95-48.94-79.32-116.52-79.32-190.88V294.83h118.23v162.79
	c0,41.73,17.12,79.72,44.69,107.29c27.56,27.56,65.55,44.69,107.28,44.69l0,0c41.73,0,79.72-17.13,107.29-44.69
	c27.57-27.57,44.69-65.56,44.69-107.29V82.61H952.49L952.49,82.61z M623.18,188.72v264.71c0,32.52,26.6,59.11,59.11,59.11l0,0
	c32.52,0,59.12-26.61,59.12-59.11V188.72H623.18z"/>
</svg>
