<?xml version="1.0" encoding="utf-8"?>
<!-- Generator: Adobe Illustrator 23.0.2, SVG Export Plug-In . SVG Version: 6.00 Build 0)  -->
<svg version="1.1" id="Layer_1" xmlns="http://www.w3.org/2000/svg" xmlns:xlink="http://www.w3.org/1999/xlink" x="0px" y="0px"
	 viewBox="0 0 1399.76 400" style="enable-background:new 0 0 1399.76 400;" xml:space="preserve">
<style type="text/css">
	.st0{fill:#FFFFFF;}
	.st1{fill:#28A7F0;}
</style>
<g>
	<path class="st0" d="M454.97,224.57c0,32.7-15.41,49.05-46.24,49.05c-29.91,0-44.86-15.97-44.86-47.91v-62.87h24.89v63.17
		c0,17.62,6.96,26.42,20.89,26.42c13.67,0,20.51-8.5,20.51-25.51v-64.08h24.81V224.57z"/>
	<path class="st0" d="M493.1,271.72V162.84h40.09c12.29,0,21.74,2.23,28.34,6.68c6.61,4.45,9.91,10.73,9.91,18.83
		c0,5.87-2.01,11.01-6.03,15.41c-4.02,4.4-9.15,7.47-15.4,9.19v0.3c7.83,0.96,14.09,3.82,18.78,8.58
		c4.69,4.76,7.03,10.55,7.03,17.39c0,9.97-3.61,17.88-10.83,23.73s-17.08,8.77-29.57,8.77H493.1z M517.91,180.91v25.82h10.91
		c5.12,0,9.15-1.23,12.1-3.68c2.94-2.45,4.42-5.83,4.42-10.14c0-8-6.04-12-18.13-12H517.91z M517.91,224.95v28.7h13.44
		c5.73,0,10.23-1.32,13.48-3.95c3.25-2.63,4.88-6.23,4.88-10.78c0-4.35-1.6-7.77-4.8-10.25c-3.2-2.48-7.67-3.72-13.4-3.72H517.91z"
		/>
	<path class="st0" d="M632.91,271.72H608.1V162.84h24.81V271.72z"/>
	<path class="st0" d="M667.04,267.54v-24.3c4.46,3.7,9.29,6.47,14.52,8.31c5.22,1.85,10.5,2.77,15.82,2.77
		c3.12,0,5.85-0.28,8.18-0.83c2.33-0.56,4.27-1.33,5.84-2.32c1.56-0.99,2.73-2.15,3.49-3.49c0.77-1.34,1.15-2.8,1.15-4.37
		c0-2.13-0.62-4.02-1.84-5.69c-1.23-1.67-2.91-3.21-5.03-4.63c-2.13-1.42-4.65-2.78-7.57-4.1c-2.92-1.32-6.07-2.66-9.45-4.02
		c-8.6-3.54-15.02-7.87-19.24-12.98c-4.22-5.11-6.34-11.29-6.34-18.53c0-5.67,1.15-10.54,3.46-14.62c2.3-4.07,5.44-7.43,9.41-10.06
		c3.97-2.63,8.56-4.57,13.79-5.81c5.22-1.24,10.75-1.86,16.59-1.86c5.74,0,10.82,0.34,15.25,1.03c4.43,0.68,8.51,1.73,12.25,3.15
		v22.7c-1.84-1.26-3.85-2.38-6.03-3.34c-2.18-0.96-4.42-1.76-6.72-2.39c-2.3-0.63-4.6-1.1-6.87-1.4c-2.28-0.3-4.44-0.46-6.49-0.46
		c-2.82,0-5.38,0.27-7.68,0.8c-2.3,0.53-4.25,1.28-5.84,2.24c-1.59,0.96-2.82,2.11-3.69,3.45c-0.87,1.34-1.31,2.85-1.31,4.52
		c0,1.82,0.49,3.45,1.46,4.9c0.97,1.44,2.35,2.81,4.15,4.1c1.79,1.29,3.97,2.56,6.53,3.8c2.56,1.24,5.45,2.52,8.68,3.83
		c4.4,1.82,8.36,3.76,11.87,5.81s6.52,4.37,9.03,6.95c2.51,2.58,4.43,5.53,5.76,8.85c1.33,3.32,2,7.18,2,11.58
		c0,6.07-1.17,11.17-3.49,15.3c-2.33,4.13-5.49,7.47-9.49,10.02c-3.99,2.56-8.64,4.39-13.94,5.5c-5.3,1.11-10.9,1.67-16.78,1.67
		c-6.04,0-11.79-0.51-17.24-1.52C675.76,271.08,671.04,269.57,667.04,267.54z"/>
	<path class="st0" d="M840.5,271.72h-66.06V162.84h63.52v19.97h-38.71v24.22h36.02v19.89h-36.02v24.9h41.25V271.72z"/>
	<path class="st0" d="M951.29,267.85c-8.04,3.85-18.54,5.77-31.49,5.77c-16.9,0-30.19-4.91-39.86-14.73
		c-9.68-9.82-14.52-22.9-14.52-39.25c0-17.41,5.44-31.54,16.32-42.37c10.88-10.83,25-16.25,42.36-16.25
		c10.75,0,19.82,1.34,27.19,4.02v23.61c-7.37-4.35-15.77-6.53-25.19-6.53c-10.34,0-18.69,3.21-25.04,9.64
		c-6.35,6.43-9.52,15.14-9.52,26.12c0,10.53,3,18.92,8.99,25.17c5.99,6.25,14.06,9.38,24.19,9.38c9.68,0,18.54-2.33,26.58-6.99
		V267.85z"/>
	<path class="st0" d="M1074.44,224.57c0,32.7-15.41,49.05-46.24,49.05c-29.91,0-44.86-15.97-44.86-47.91v-62.87h24.89v63.17
		c0,17.62,6.96,26.42,20.89,26.42c13.67,0,20.51-8.5,20.51-25.51v-64.08h24.81V224.57z"/>
	<path class="st0" d="M1204.96,271.72h-28.5l-17.13-28.02c-1.28-2.13-2.51-4.02-3.69-5.69c-1.18-1.67-2.37-3.1-3.57-4.29
		c-1.2-1.19-2.46-2.1-3.76-2.73s-2.73-0.95-4.26-0.95h-6.68v41.68h-24.81V162.84h39.33c26.73,0,40.09,9.87,40.09,29.61
		c0,3.8-0.59,7.3-1.77,10.52c-1.18,3.21-2.84,6.11-4.99,8.69c-2.15,2.58-4.75,4.81-7.8,6.68c-3.05,1.87-6.44,3.34-10.18,4.4v0.3
		c1.64,0.51,3.23,1.33,4.76,2.47c1.54,1.14,3.02,2.47,4.46,3.99c1.43,1.52,2.8,3.15,4.11,4.9c1.31,1.75,2.5,3.46,3.57,5.13
		L1204.96,271.72z M1137.37,181.21v30.3h10.75c5.33,0,9.6-1.52,12.83-4.56c3.28-3.09,4.92-6.91,4.92-11.46
		c0-9.52-5.76-14.27-17.28-14.27H1137.37z"/>
	<path class="st0" d="M1295.47,271.72h-66.06V162.84h63.52v19.97h-38.71v24.22h36.02v19.89h-36.02v24.9h41.25V271.72z"/>
</g>
<g>
	<path class="st0" d="M1352.43,175.95c0,10.09-7.92,18.01-18.23,18.01c-10.2,0-18.34-7.92-18.34-18.01c0-9.88,8.14-17.8,18.34-17.8
		C1344.51,158.15,1352.43,166.07,1352.43,175.95z M1320.42,175.95c0,7.92,5.86,14.22,13.89,14.22c7.81,0,13.57-6.29,13.57-14.11
		c0-7.92-5.75-14.32-13.67-14.32S1320.42,168.14,1320.42,175.95z M1331.38,185.28h-4.12v-17.8c1.63-0.33,3.91-0.54,6.84-0.54
		c3.36,0,4.88,0.54,6.19,1.3c0.98,0.76,1.74,2.17,1.74,3.91c0,1.95-1.52,3.47-3.69,4.12v0.22c1.74,0.65,2.71,1.95,3.26,4.34
		c0.54,2.71,0.87,3.8,1.3,4.45h-4.45c-0.54-0.65-0.87-2.28-1.41-4.34c-0.33-1.95-1.41-2.82-3.69-2.82h-1.95V185.28z M1331.49,175.19
		h1.95c2.28,0,4.12-0.76,4.12-2.6c0-1.63-1.19-2.71-3.8-2.71c-1.08,0-1.84,0.11-2.28,0.22V175.19z"/>
</g>
<path class="st1" d="M325.96,37.37v188.77c0,37.43-15.3,71.45-39.93,96.08c-24.64,24.63-58.65,39.93-96.08,39.93l0,0
	c-37.43,0-71.44-15.3-96.08-39.93c-24.64-24.64-39.93-58.65-39.93-96.08v-81.95h59.51v81.95c0,21.01,8.62,40.13,22.5,54.01
	c13.87,13.87,33,22.49,54,22.49l0,0c21.01,0,40.13-8.62,54.01-22.49c13.88-13.88,22.49-33,22.49-54.01V37.37H325.96L325.96,37.37z
	 M160.2,90.78v133.25c0,16.37,13.39,29.75,29.75,29.75l0,0c16.37,0,29.76-13.39,29.76-29.75V90.78H160.2z"/>
</svg>
